HIERARCHY
ROOT joint_0
{
	OFFSET 0.000000 0.000000 0.000000
	CHANNELS 6 Xposition Yposition Zposition Zrotation Yrotation Xrotation 
	JOINT joint_1
	{
		OFFSET 0.511002 1.944000 108.288940
		CHANNELS 3 Zrotation Yrotation Xrotation
		JOINT joint_2
		{
			OFFSET -9.074005 1.512993 98.440063
			CHANNELS 3 Zrotation Yrotation Xrotation
			JOINT joint_3
			{
				OFFSET -8.590996 1.815002 98.366943
				CHANNELS 3 Zrotation Yrotation Xrotation
				JOINT joint_4
				{
					OFFSET 2.489998 3.531998 136.462036
					CHANNELS 3 Zrotation Yrotation Xrotation
					JOINT joint_5
					{
						OFFSET 22.708000 2.955002 80.357056
						CHANNELS 3 Zrotation Yrotation Xrotation
						End Site
						{
							OFFSET 0.000000 0.000000 0.000000
						}
					}
				}
				JOINT joint_6
				{
					OFFSET 2.860001 -27.684998 77.234009
					CHANNELS 3 Zrotation Yrotation Xrotation
					JOINT joint_7
					{
						OFFSET 5.449997 -131.244003 -18.851929
						CHANNELS 3 Zrotation Yrotation Xrotation
						JOINT joint_8
						{
							OFFSET 35.757000 -24.661995 -264.074097
							CHANNELS 3 Zrotation Yrotation Xrotation
							JOINT joint_9
							{
								OFFSET 49.392001 -1.747002 -239.960938
								CHANNELS 3 Zrotation Yrotation Xrotation
								End Site
								{
									OFFSET 0.000000 0.000000 0.000000
								}
							}
						}
					}
				}
				JOINT joint_10
				{
					OFFSET -0.127998 31.625000 75.753052
					CHANNELS 3 Zrotation Yrotation Xrotation
					JOINT joint_11
					{
						OFFSET -5.618004 131.132996 -19.557007
						CHANNELS 3 Zrotation Yrotation Xrotation
						JOINT joint_12
						{
							OFFSET 46.488998 30.127991 -261.826050
							CHANNELS 3 Zrotation Yrotation Xrotation
							JOINT joint_13
							{
								OFFSET 66.021003 0.474030 -235.934937
								CHANNELS 3 Zrotation Yrotation Xrotation
								End Site
								{
									OFFSET 0.000000 0.000000 0.000000
								}
							}
						}
					}
				}
			}
		}
	}
	JOINT joint_14
	{
		OFFSET 15.887001 -78.871004 -94.561035
		CHANNELS 3 Zrotation Yrotation Xrotation
		JOINT joint_15
		{
			OFFSET -4.133003 6.714001 -473.615967
			CHANNELS 3 Zrotation Yrotation Xrotation
			JOINT joint_16
			{
				OFFSET -19.541000 5.340000 -399.613007
				CHANNELS 3 Zrotation Yrotation Xrotation
				JOINT joint_17
				{
					OFFSET 164.317001 41.657999 -73.195000
					CHANNELS 3 Zrotation Yrotation Xrotation
					End Site
					{
						OFFSET 0.000000 0.000000 0.000000
					}
				}
			}
		}
	}
	JOINT joint_18
	{
		OFFSET 6.513000 77.960991 -96.406982
		CHANNELS 3 Zrotation Yrotation Xrotation
		JOINT joint_19
		{
			OFFSET -10.660004 -8.518997 -473.485016
			CHANNELS 3 Zrotation Yrotation Xrotation
			JOINT joint_20
			{
				OFFSET -36.967995 -11.098999 -398.260010
				CHANNELS 3 Zrotation Yrotation Xrotation
				JOINT joint_21
				{
					OFFSET 166.067997 30.363998 -74.785000
					CHANNELS 3 Zrotation Yrotation Xrotation
					End Site
					{
						OFFSET 0.000000 0.000000 0.000000
					}
				}
			}
		}
	}
}
MOTION
Frames: 9
Frame Time: 0.016667
-2296.249023 836.242798 1017.900024 -0.963781 5.497369 1.780504 -3.670814 5.112665 0.472887 -1.721671 -0.861923 0.026951 -1.638418 1.052821 0.114820 0.909260 -11.334575 -1.063635 0.000000 0.000000 0.000000 -1.871826 0.187886 -0.357666 -0.730078 -0.380154 -8.776995 -1.872483 8.997732 -10.256804 0.000000 0.000000 0.000000 -6.257256 3.659946 -0.462164 2.940596 5.171639 0.870144 2.768019 -6.797970 8.675725 0.000000 0.000000 0.000000 0.759868 -24.238014 -14.089404 -5.000506 29.280153 -0.444887 -8.959860 -11.654050 -0.393879 0.000000 0.000000 0.000000 -0.582934 -19.954212 23.162064 -2.749983 59.747483 -19.178907 -0.241663 9.052308 -2.103528 0.000000 0.000000 0.000000 
-2278.043457 835.914001 1019.385986 -0.345478 5.489177 1.785094 -3.718462 5.392235 0.539679 -1.638185 -0.941710 -0.024310 -1.524212 1.173967 0.146705 0.844837 -11.122408 -0.944786 0.000000 0.000000 0.000000 -1.930066 0.118996 -0.340812 -0.727696 -0.442834 -8.495711 -1.962791 9.202560 -10.656407 0.000000 0.000000 0.000000 -6.241723 3.958362 -0.683572 2.886232 5.442091 0.920403 2.711835 -6.568344 8.527996 0.000000 0.000000 0.000000 0.222155 -22.790918 -13.910874 -5.308605 28.940212 -0.729040 -9.300823 -12.346484 -0.364256 0.000000 0.000000 0.000000 0.057704 -21.857126 23.515769 -2.451610 58.920257 -18.093833 1.510219 6.648430 -0.963290 0.000000 0.000000 0.000000 
-2260.485840 837.420044 1021.955994 0.422210 5.586912 1.754201 -3.695753 5.406932 0.599952 -1.637241 -0.923580 -0.033475 -1.524386 1.156868 0.151265 0.783009 -10.829467 -0.827678 0.000000 0.000000 0.000000 -1.917670 0.189571 -0.509414 -0.735153 -0.332148 -7.916208 -2.008336 8.933962 -10.682419 0.000000 0.000000 0.000000 -6.159864 4.385134 -0.738995 2.779173 5.800348 0.822333 2.611074 -6.359379 8.246279 0.000000 0.000000 0.000000 -0.468527 -21.451058 -13.778504 -5.623672 28.404272 -0.964371 -9.531475 -12.455144 -0.443154 0.000000 0.000000 0.000000 0.644256 -23.866428 23.521878 -2.056868 56.841483 -16.331438 3.364876 5.034690 -0.067378 0.000000 0.000000 0.000000 
-2243.017822 840.352112 1025.524048 1.234702 5.721316 1.714929 -3.596628 5.231933 0.627704 -1.683362 -0.856314 -0.020450 -1.587219 1.065733 0.143653 0.713110 -10.438613 -0.685365 0.000000 0.000000 0.000000 -1.881975 0.358567 -0.785509 -0.752222 -0.106096 -7.174750 -2.011269 8.265725 -10.426252 0.000000 0.000000 0.000000 -6.014543 4.913575 -0.691637 2.636895 6.231874 0.682173 2.483128 -6.161213 7.880333 0.000000 0.000000 0.000000 -1.277292 -20.033368 -13.657103 -5.935077 27.503706 -1.215936 -9.645392 -12.103486 -0.598501 0.000000 0.000000 0.000000 1.234001 -25.646732 23.190819 -1.426666 53.403229 -14.074657 5.049143 4.132683 0.623128 0.000000 0.000000 0.000000 
-2225.381836 843.841064 1029.229004 1.918882 5.775941 1.641829 -3.464734 5.095814 0.596992 -1.696020 -0.796663 -0.003813 -1.613246 0.996259 0.134255 0.632432 -10.000517 -0.503303 0.000000 0.000000 0.000000 -1.858772 0.496652 -1.029509 -0.775326 0.083148 -6.512897 -1.969531 7.444322 -9.968427 0.000000 0.000000 0.000000 -5.838850 5.473524 -0.602365 2.557218 6.696894 0.577593 2.410654 -6.359637 7.671173 0.000000 0.000000 0.000000 -2.053541 -18.620049 -13.573757 -6.197909 26.691589 -1.376024 -9.711764 -11.449287 -0.808353 0.000000 0.000000 0.000000 1.697001 -26.907954 22.831133 -0.623304 49.167410 -11.934679 6.058944 3.214365 1.185651 0.000000 0.000000 0.000000 
-2207.433350 847.535217 1033.031006 2.381327 5.667615 1.521198 -3.303054 5.112046 0.479507 -1.637562 -0.754307 -0.002816 -1.559011 0.987856 0.128562 0.532140 -9.527340 -0.249077 0.000000 0.000000 0.000000 -1.856390 0.563366 -1.188891 -0.808247 0.188044 -6.010150 -1.872988 6.472984 -9.279941 0.000000 0.000000 0.000000 -5.639020 6.085187 -0.456893 2.587810 7.217824 0.498355 2.429447 -7.252624 7.727949 0.000000 0.000000 0.000000 -2.764389 -17.117083 -13.539042 -6.397493 25.958996 -1.395610 -9.714495 -10.478047 -1.070440 0.000000 0.000000 0.000000 2.058626 -27.475626 22.584062 0.371080 43.859152 -9.995590 6.417768 2.287705 1.588214 0.000000 0.000000 0.000000 
-2189.317139 851.786316 1036.969971 2.638630 5.447051 1.331246 -3.082453 5.243235 0.352050 -1.519596 -0.754381 -0.021478 -1.437880 0.994699 0.121676 0.420725 -9.006375 0.043601 0.000000 0.000000 0.000000 -1.863321 0.607604 -1.306800 -0.844451 0.262719 -5.609097 -1.725226 5.337353 -8.393104 0.000000 0.000000 0.000000 -5.406275 6.735857 -0.257002 2.663828 7.768548 0.450669 2.486470 -8.563007 7.903535 0.000000 0.000000 0.000000 -3.407293 -15.593318 -13.522163 -6.534283 25.308821 -1.336487 -9.659018 -9.186908 -1.385703 0.000000 0.000000 0.000000 2.366693 -27.333312 22.380308 1.443501 37.320785 -8.222067 6.200982 1.977107 1.681196 0.000000 0.000000 0.000000 
-2171.214600 856.774597 1040.302979 2.805482 5.288489 1.056543 -2.804754 5.293680 0.337663 -1.379063 -0.772481 -0.051165 -1.294114 0.987252 0.120509 0.321098 -8.450121 0.290101 0.000000 0.000000 0.000000 -1.903955 0.633667 -1.408179 -0.873045 0.306766 -5.330877 -1.554705 4.258706 -7.463259 0.000000 0.000000 0.000000 -5.167024 7.301641 -0.069420 2.723849 8.235668 0.495729 2.531980 -9.818114 8.066846 0.000000 0.000000 0.000000 -3.924281 -14.462318 -13.515244 -6.631338 25.251228 -1.247102 -9.674679 -7.807850 -1.735823 0.000000 0.000000 0.000000 2.384177 -26.748820 22.250985 2.173310 30.577695 -7.040722 5.365963 1.800993 1.510046 0.000000 0.000000 0.000000 
-2153.235596 862.641968 1043.021973 3.043278 5.422749 0.723196 -2.476944 4.884996 0.437336 -1.283377 -0.678619 -0.057113 -1.211002 0.933979 0.136647 0.246085 -7.828859 0.440430 0.000000 0.000000 0.000000 -1.989526 0.644088 -1.523682 -0.892536 0.322042 -5.197893 -1.356077 3.284823 -6.449945 0.000000 0.000000 0.000000 -4.914993 7.762379 0.097600 2.757906 8.602366 0.603877 2.560790 -10.902338 8.216335 0.000000 0.000000 0.000000 -4.315732 -14.092966 -13.567323 -6.717253 26.084469 -1.091546 -9.825269 -6.360493 -2.136627 0.000000 0.000000 0.000000 1.721666 -25.865683 22.229629 2.172308 23.637524 -6.577684 3.745980 0.749177 1.193197 0.000000 0.000000 0.000000 
